<?xml version="1.0" encoding="UTF-8" standalone="no"?>
<svg
   version="1.1"
   viewBox="0 0 85.152542 32"
   height="32"
   width="85.152542"
   id="lokomotive-logo">
  <defs
     id="defs18" />
  <rect
     style="fill:#ffe000;fill-opacity:1;stroke:none;stroke-width:0.0903955"
     id="rect2"
     height="13.559322"
     width="4.519774"
     y="18.440678"
     x="53.062145" />
  <rect
     style="fill:#ffe000;fill-opacity:1;stroke:none;stroke-width:0.0903955"
     id="rect4"
     height="9.0395479"
     width="4.519774"
     y="18.440678"
     x="60.112995" />
  <rect
     style="fill:#ffe000;fill-opacity:1;stroke:none;stroke-width:0.0903955"
     id="rect6"
     height="9.0395479"
     width="4.519774"
     y="18.440678"
     x="69.152542" />
  <rect
     style="fill:#ffe000;fill-opacity:1;stroke:none;stroke-width:0.0903955"
     id="rect8"
     height="4.519774"
     width="4.519774"
     y="27.480227"
     x="64.632767" />
  <path
     style="fill:#ffe000;fill-opacity:1;stroke:none;stroke-width:0.0903955"
     id="path10"
     d="M 27.570621,13.559322 V 0 h 4.519774 v 9.039548 h 4.519774 v 4.519774 z" />
  <path
     style="fill:#ffe000;fill-opacity:1;stroke:none;stroke-width:0.0903955"
     id="path12"
     d="M 39.141243,0 H 52.881356 V 13.559322 H 39.141243 Z m 4.519774,9.039548 V 4.519774 h 4.700565 v 4.519774 z"
     clip-rule="evenodd"
     fill-rule="evenodd" />
  <path
     style="fill:#ffe000;fill-opacity:1;stroke:none;stroke-width:0.0903955"
     id="path14"
     d="M 71.412429,0 H 85.152542 V 13.559322 H 71.412429 Z m 4.519774,9.039548 V 4.519774 h 4.700565 v 4.519774 z"
     clip-rule="evenodd"
     fill-rule="evenodd" />
  <path
     style="fill:#ffe000;fill-opacity:1;stroke:none;stroke-width:0.0903955"
     id="path16"
     d="M 20.971751,18.440678 H 34.711864 V 32 H 20.971751 Z m 4.519774,9.039548 v -4.519774 h 4.700565 v 4.519774 z"
     clip-rule="evenodd"
     fill-rule="evenodd" />
  <path
     style="fill:#ffe000;fill-opacity:1;stroke:none;stroke-width:0.0903955"
     id="path18"
     d="M 55.231638,13.559322 V 0 h 4.519774 v 4.519774 h 4.700565 V 4.4293785 0 h 4.519774 v 4.519774 h -4.519774 v 4.4745763 0.045198 h 4.519774 V 13.559322 H 64.451977 V 9.039548 h -4.700565 v 4.519774 z" />
  <path
     style="fill:#ffe000;fill-opacity:1;stroke:none;stroke-width:0.0903955"
     id="path20"
     d="M 0.09039548,32 H 4.6101695 V 22.960452 H 6.960452 v 4.610169 h 4.519774 v -4.610169 h 2.350282 V 32 h 4.519774 V 18.440678 H 0.09039548 Z" />
  <path
     style="fill:#ffe000;fill-opacity:1;stroke:none;stroke-width:0.0903955"
     id="path22"
     d="m 37.062147,22.960452 h 4.519774 V 32 h 4.519774 v -9.039548 h 4.519774 V 18.440678 H 37.062147 Z" />
  <path
     style="fill:#ffe000;fill-opacity:1;stroke:none;stroke-width:0.0903955"
     id="path24"
     d="M 85.152542,32 H 76.20339 V 18.440678 h 8.949152 v 4.519774 h -4.429378 v 1.175141 h 2.350282 v 2.259887 h -2.350282 v 1.084746 h 4.429378 z" />
  <path
     id="path26"
     fill="white"
     d="m 19.459345,12.85035 -0.08841,0.708972 H 0 L 1.5921266,5.494626 H 3.2727051 L 3.8476384,3.367675 C 4.5552542,0.744434 6.6780836,0 7.9606328,0 H 23.881944 L 23.70504,0.708984 h -5.395616 l -0.353808,1.24072 h 6.72235 l -0.176904,0.886237 h -3.538079 l -0.265311,1.152091 h 1.415232 l -0.0885,0.443118 H 9.243209 c -0.8856497,0 -1.3710282,0.768064 -1.4594802,1.1521 L 6.9162305,9.128136 H 21.228384 l -0.191457,0.709062 h -4.009944 l -0.248859,1.15209 h 6.130893 l -0.176904,0.974825 H 11.056452 l -0.353808,0.886237 z"
     style="fill:#ffffff;stroke-width:0.0903955" />
</svg>
