<?xml version="1.0" encoding="UTF-8" standalone="no"?>
<svg
   width="246.02417"
   height="32"
   viewBox="0 0 246.02417 32"
   fill="none"
   version="1.1"
   id="svg30"
>
  <g
     id="g875"
     transform="scale(0.27633851)">
    <path
       d="M 93,48.3 86.3001,34 69.6,26.2 H 62.4001 L 45.9001,34 39.3,48.3 62.4001,51.8 H 69.6 Z"
       fill="#fff200"
       id="path2" />
    <path
       d="m 46.4,95.6 -9.6,-1.7 -5.9,-14.3 1.2,-1.5 10.7,3.8 z"
       fill="#fff200"
       id="path4" />
    <path
       d="m 89.7,81.9 10.6,-3.8 1.2,1.5 -5.9,14.3 -9.6,1.7 z"
       fill="#fff200"
       id="path6" />
    <path
       d="M 101.3,11.6 80.9,0 H 51.3 L 30.9,11.6 0,74 17.6,115.8 30.9,106.3 17.1,74 39.3,26.1 58.2,15.7 H 74 l 19,10.4 22.1,47.9 -13.8,32.3 13.2,9.5 17.7,-41.8 z"
       fill="#fff200"
       id="path8" />
    <path
       d="m 218.3,107.9 h -10 -10 -10 -10 -10 v -10 -10 -10 -10 -10 -10 -10 -10 -10 -10.00001 h 10 10 V 17.9 v 10 10 10 10 10 10 10 h 10 10 10 10 v 10 10 z"
       fill="#fff200"
       id="path10" />
    <path
       d="m 296.3,107.9 h -10 -10 -10 -10 -10 v -10 -10 -10 -10 -10 -10 -10 -10 -10 -10.00001 h 10 10 10 10 10 10 V 17.9 v 10 10 10 10 10 10 10 10 10 z m -20,-20 h 10 v -10 -10 -10 -10 -10 -10 h -10 -10 v 10 10 10 10 10 10 z"
       fill="#fff200"
       id="path12" />
    <path
       d="m 334.3,107.9 h -10 v -10 -10 -10 -10 -10 -10 -10 -10 -10 -10.00001 h 10 10 V 17.9 v 10 10 10 h 10 10 v 10 10 h -10 -10 v 10 10 10 10 z m 30,-60 v -10 -10 -10 -10.00001 h 10 10 V 17.9 v 10 10 10 h -10 z m 10,60 h -10 v -10 -10 -10 -10 h 10 10 v 10 10 10 10 z"
       fill="#fff200"
       id="path14" />
    <path
       d="m 452.3,107.9 h -10 -10 -10 -10 -10 v -10 -10 -10 -10 -10 -10 -10 -10 -10 -10.00001 h 10 10 10 10 10 10 V 17.9 v 10 10 10 10 10 10 10 10 10 z m -20,-20 h 10 v -10 -10 -10 -10 -10 -10 h -10 -10 v 10 10 10 10 10 10 z"
       fill="#fff200"
       id="path16" />
    <path
       d="m 530.3,107.9 h -10 v -10 -10 -10 -10 -10 -10 h -10 -10 v 10 10 10 10 10 10 h -10 -10 v -10 -10 -10 -10 -10 -10 -10 -10 -10 -10.00001 h 10 10 V 17.9 v 10 h 10 10 V 17.9 7.89999 h 10 10 V 17.9 v 10 10 10 10 10 10 10 10 10 z"
       fill="#fff200"
       id="path18" />
    <path
       d="m 608.3,107.9 h -10 -10 -10 -10 -10 v -10 -10 -10 -10 -10 -10 -10 -10 -10 -10.00001 h 10 10 10 10 10 10 V 17.9 v 10 10 10 10 10 10 10 10 10 z m -20,-20 h 10 v -10 -10 -10 -10 -10 -10 h -10 -10 v 10 10 10 10 10 10 z"
       fill="#fff200"
       id="path20" />
    <path
       d="m 666.3,107.9 h -10 v -10 -10 -10 -10 -10 -10 -10 -10 h -10 -10 V 17.9 7.89999 h 10 10 10 10 10 10 V 17.9 v 10 h -10 -10 v 10 10 10 10 10 10 10 10 z"
       fill="#fff200"
       id="path22" />
    <path
       d="m 724.3,107.9 h -10 v -10 -10 -10 -10 -10 -10 -10 -10 -10 -10.00001 h 10 10 V 17.9 v 10 10 10 10 10 10 10 10 10 z"
       fill="#fff200"
       id="path24" />
    <path
       d="m 772.3,87.9 h -10 -10 v -10 -10 -10 -10 -10 -10 -10 -10.00001 h 10 10 V 17.9 v 10 10 10 10 10 10 z m 10,20 h -10 v -10 -10 h 10 10 v 10 10 z m 10,-20 v -10 -10 -10 -10 -10 -10 -10 -10.00001 h 10 10 V 17.9 v 10 10 10 10 10 10 10 h -10 z"
       fill="#fff200"
       id="path26" />
    <path
       d="m 880.3,107.9 h -10 -10 -10 -10 -10 v -10 -10 -10 -10 -10 -10 -10 -10 -10 -10.00001 h 10 10 10 10 10 10 V 17.9 v 10 h -10 -10 -10 -10 v 10 10 h 10 10 10 10 v 10 10 h -10 -10 -10 -10 v 10 10 h 10 10 10 10 v 10 10 z"
       fill="#fff200"
       id="path28" />
  </g>
</svg>
